<?xml version="1.0" standalone="no"?>
<!DOCTYPE svg PUBLIC "-//W3C//DTD SVG 20010904//EN"
 "http://www.w3.org/TR/2001/REC-SVG-20010904/DTD/svg10.dtd">
<svg version="1.0" xmlns="http://www.w3.org/2000/svg"
 width="236.000000pt" height="236.000000pt" viewBox="0 0 236.000000 236.000000"
 preserveAspectRatio="xMidYMid meet">
<metadata>
Created by potrace 1.14, written by Peter Selinger 2001-2017
</metadata>
<g transform="translate(0.000000,236.000000) scale(0.100000,-0.100000)"
fill="#000000" stroke="none">
<path d="M938 2355 c-2 -2 -25 -5 -53 -8 -27 -4 -65 -9 -83 -11 -51 -8 -209
-69 -222 -87 -3 -3 -20 -14 -37 -23 -53 -27 -160 -133 -212 -211 -105 -158
-152 -324 -146 -525 3 -131 4 -138 31 -229 50 -174 177 -359 299 -436 17 -11
32 -23 35 -26 14 -20 110 -60 176 -75 60 -13 105 -15 222 -10 124 4 267 21
224 25 -21 2 -123 75 -174 124 -80 79 -178 242 -223 372 -52 151 -64 312 -35
451 18 86 61 190 97 235 43 53 127 128 172 152 49 27 156 55 201 52 64 -5 125
-17 171 -35 61 -25 79 -25 79 -2 1 9 7 34 14 54 13 36 13 38 -18 63 -51 43
-180 103 -261 121 -89 20 -247 37 -257 29z"/>
<path d="M1690 2299 c-86 -31 -142 -92 -165 -184 -26 -96 -15 -173 38 -286 84
-176 290 -274 441 -210 65 29 139 105 164 172 26 69 23 181 -6 257 -36 94
-119 182 -219 231 -81 41 -174 48 -253 20z"/>
<path d="M1209 2055 c-2 -1 -27 -5 -55 -8 -77 -7 -139 -39 -203 -106 -125
-132 -188 -338 -149 -492 l10 -39 30 46 c48 72 142 159 203 188 77 36 133 48
250 51 125 4 216 -8 288 -39 20 -8 37 -13 37 -11 0 2 -22 33 -49 68 -78 104
-114 189 -120 284 -2 37 -21 43 -187 57 -29 3 -54 3 -55 1z"/>
<path d="M1275 1642 c-58 -3 -153 -31 -205 -58 -62 -34 -136 -117 -162 -183
-17 -44 -22 -78 -22 -157 -1 -97 0 -103 38 -179 45 -90 126 -180 196 -215 25
-12 52 -28 60 -35 33 -27 135 -50 220 -49 70 0 95 5 143 27 70 32 129 92 152
156 32 85 37 74 19 -39 -12 -74 -74 -147 -154 -184 -58 -26 -61 -26 -152 -28
-76 -1 -83 -4 -79 -37 2 -7 -3 -10 -9 -6 -6 4 -9 13 -6 21 3 7 1 16 -3 19 -16
9 -21 -24 -6 -39 8 -7 11 -17 7 -21 -4 -5 -2 -5 5 -2 6 4 13 4 16 0 2 -5 2 -2
1 5 -6 23 6 12 17 -15 14 -38 0 -45 -50 -22 -56 25 -97 30 -263 34 -87 2 -136
-1 -132 -7 3 -5 9 -7 12 -4 3 3 10 2 16 -3 6 -4 38 -23 71 -41 52 -29 81 -54
122 -104 8 -10 33 -55 54 -98 8 -17 21 -107 22 -158 0 -14 -3 -52 -8 -85 -9
-66 -9 -63 -19 -87 -16 -35 1 -39 187 -36 l182 3 18 36 c74 153 26 431 -91
516 -21 15 -49 38 -63 51 -26 23 -49 16 -33 -10 4 -7 3 -8 -5 -4 -6 4 -9 16
-6 26 3 11 0 20 -10 24 -16 6 -21 36 -6 36 19 0 97 -50 135 -87 119 -115 186
-339 150 -508 -17 -85 -25 -80 124 -81 72 0 136 2 140 5 19 12 91 204 107 286
25 123 32 206 30 335 -2 80 -6 156 -9 170 -2 14 -10 52 -16 85 -48 272 -198
538 -360 640 -51 32 -136 76 -154 79 -6 1 -20 5 -32 9 -32 11 -144 22 -189 19z"/>
<path d="M1245 699 c-17 -7 -16 -8 8 -8 19 -1 26 -5 21 -13 -4 -7 -3 -8 4 -4
29 18 1 39 -33 25z"/>
</g>
</svg>
